REM DIRINDEX 1\2\5,1\2\6,1\2\7,1\2\8,1\3\9,1\3\10,1\3\11,1\4\12,1\4\13,1\4\14,1\4\15,1\4\16
REM DIRNAME folder01,folder02,folder03,folder04,folder05,folder06,folder07,folder08,folder09,folder10,folder11,folder12,folder13,folder14,folder15,folder16
TITLE ""
FILE "1200_sec02_0549_0557.mp3" MP3
  TRACK 01 AUDIO
    TITLE "0:"
    INDEX 01 00:00:00
  TRACK 02 AUDIO
    TITLE "12:cjc034_05841"
    INDEX 01 00:00:19
  TRACK 03 AUDIO
    TITLE "0:"
    INDEX 01 00:01:26
  TRACK 04 AUDIO
    TITLE "13:cjc034_05842"
    INDEX 01 00:01:62
  TRACK 05 AUDIO
    TITLE "0:"
    INDEX 01 00:06:14
  TRACK 06 AUDIO
    TITLE "14:cjc034_05843"
    INDEX 01 00:06:47
  TRACK 07 AUDIO
    TITLE "0:"
    INDEX 01 00:07:54
  TRACK 08 AUDIO
    TITLE "15:cjc034_05844"
    INDEX 01 00:08:13
  TRACK 09 AUDIO
    TITLE "0:"
    INDEX 01 00:12:60
  TRACK 10 AUDIO
    TITLE "16:cjc034_05845"
    INDEX 01 00:14:17
  TRACK 11 AUDIO
    TITLE "0:"
    INDEX 01 00:15:32
  TRACK 12 AUDIO
    TITLE "12:cjc034_05846"
    INDEX 01 00:16:34
  TRACK 13 AUDIO
    TITLE "0:"
    INDEX 01 00:17:41
  TRACK 14 AUDIO
    TITLE "13:cjc034_05847"
    INDEX 01 00:18:01
  TRACK 15 AUDIO
    TITLE "0:"
    INDEX 01 00:21:53
  TRACK 16 AUDIO
    TITLE "14:cjc034_05848"
    INDEX 01 00:22:09
  TRACK 17 AUDIO
    TITLE "0:"
    INDEX 01 00:23:14
  TRACK 18 AUDIO
    TITLE "15:cjc034_05849"
    INDEX 01 00:23:50
  TRACK 19 AUDIO
    TITLE "0:"
    INDEX 01 00:28:02
  TRACK 20 AUDIO
    TITLE "12:cjc034_05850"
    INDEX 01 00:29:34
  TRACK 21 AUDIO
    TITLE "0:"
    INDEX 01 00:30:50
  TRACK 22 AUDIO
    TITLE "13:cjc034_05851"
    INDEX 01 00:31:04
  TRACK 23 AUDIO
    TITLE "0:"
    INDEX 01 00:34:20
  TRACK 24 AUDIO
    TITLE "14:cjc034_05852"
    INDEX 01 00:34:53
  TRACK 25 AUDIO
    TITLE "0:"
    INDEX 01 00:35:68
  TRACK 26 AUDIO
    TITLE "15:cjc034_05853"
    INDEX 01 00:36:25
  TRACK 27 AUDIO
    TITLE "0:"
    INDEX 01 00:40:30
  TRACK 28 AUDIO
    TITLE "12:cjc034_05854"
    INDEX 01 00:41:61
  TRACK 29 AUDIO
    TITLE "0:"
    INDEX 01 00:43:05
  TRACK 30 AUDIO
    TITLE "13:cjc034_05855"
    INDEX 01 00:43:39
  TRACK 31 AUDIO
    TITLE "0:"
    INDEX 01 00:46:66
  TRACK 32 AUDIO
    TITLE "14:cjc034_05856"
    INDEX 01 00:47:23
  TRACK 33 AUDIO
    TITLE "0:"
    INDEX 01 00:48:44
  TRACK 34 AUDIO
    TITLE "15:cjc034_05857"
    INDEX 01 00:49:00
  TRACK 35 AUDIO
    TITLE "0:"
    INDEX 01 00:52:53
  TRACK 36 AUDIO
    TITLE "12:cjc034_05858"
    INDEX 01 00:54:13
  TRACK 37 AUDIO
    TITLE "0:"
    INDEX 01 00:55:20
  TRACK 38 AUDIO
    TITLE "13:cjc034_05859"
    INDEX 01 00:55:55
  TRACK 39 AUDIO
    TITLE "0:"
    INDEX 01 00:59:59
  TRACK 40 AUDIO
    TITLE "14:cjc034_05860"
    INDEX 01 01:00:25
  TRACK 41 AUDIO
    TITLE "0:"
    INDEX 01 01:01:33
  TRACK 42 AUDIO
    TITLE "15:cjc034_05861"
    INDEX 01 01:01:68
  TRACK 43 AUDIO
    TITLE "0:"
    INDEX 01 01:04:50
  TRACK 44 AUDIO
    TITLE "12:cjc034_05862"
    INDEX 01 01:06:08
  TRACK 45 AUDIO
    TITLE "0:"
    INDEX 01 01:07:23
  TRACK 46 AUDIO
    TITLE "13:cjc034_05863"
    INDEX 01 01:07:55
  TRACK 47 AUDIO
    TITLE "0:"
    INDEX 01 01:09:34
  TRACK 48 AUDIO
    TITLE "14:cjc034_05864"
    INDEX 01 01:09:63
  TRACK 49 AUDIO
    TITLE "0:"
    INDEX 01 01:11:02
  TRACK 50 AUDIO
    TITLE "15:cjc034_05865"
    INDEX 01 01:11:35
  TRACK 51 AUDIO
    TITLE "0:"
    INDEX 01 01:17:69
  TRACK 52 AUDIO
    TITLE "12:cjc034_05866"
    INDEX 01 01:19:27
  TRACK 53 AUDIO
    TITLE "0:"
    INDEX 01 01:20:44
  TRACK 54 AUDIO
    TITLE "13:cjc034_05867"
    INDEX 01 01:21:04
  TRACK 55 AUDIO
    TITLE "0:"
    INDEX 01 01:25:09
  TRACK 56 AUDIO
    TITLE "14:cjc034_05868"
    INDEX 01 01:25:41
  TRACK 57 AUDIO
    TITLE "0:"
    INDEX 01 01:26:60
  TRACK 58 AUDIO
    TITLE "15:cjc034_05869"
    INDEX 01 01:27:18
  TRACK 59 AUDIO
    TITLE "0:"
    INDEX 01 01:30:44
  TRACK 60 AUDIO
    TITLE "12:cjc034_05870"
    INDEX 01 01:32:04
  TRACK 61 AUDIO
    TITLE "0:"
    INDEX 01 01:33:17
  TRACK 62 AUDIO
    TITLE "13:cjc034_05871"
    INDEX 01 01:33:52
  TRACK 63 AUDIO
    TITLE "0:"
    INDEX 01 01:37:26
  TRACK 64 AUDIO
    TITLE "14:cjc034_05872"
    INDEX 01 01:37:56
  TRACK 65 AUDIO
    TITLE "0:"
    INDEX 01 01:38:73
  TRACK 66 AUDIO
    TITLE "15:cjc034_05873"
    INDEX 01 01:39:27
  TRACK 67 AUDIO
    TITLE "0:"
    INDEX 01 01:43:29
  TRACK 68 AUDIO
    TITLE "12:cjc034_05874"
    INDEX 01 01:44:62
  TRACK 69 AUDIO
    TITLE "0:"
    INDEX 01 01:46:02
  TRACK 70 AUDIO
    TITLE "13:cjc034_05875"
    INDEX 01 01:46:37
  TRACK 71 AUDIO
    TITLE "0:"
    INDEX 01 01:49:67
  TRACK 72 AUDIO
    TITLE "14:cjc034_05876"
    INDEX 01 01:50:21
  TRACK 73 AUDIO
    TITLE "0:"
    INDEX 01 01:51:38
  TRACK 74 AUDIO
    TITLE "15:cjc034_05877"
    INDEX 01 01:51:72
  TRACK 75 AUDIO
    TITLE "0:"
    INDEX 01 01:55:15
